<?xml version="1.0" encoding="UTF-8"?><svg id="content" xmlns="http://www.w3.org/2000/svg" viewBox="0 0 564.0474571 78.8185744"><path d="M34.0552368,48.0693311c7.5439453-5.4072266,13.8427734-12.7939453,13.5664062-19.0102539-.25-5.6181641-5.0976562-8.7163086-12.8681641-8.3710938-12.8701172.5727539-25.5029297,10.9956055-31.6699219,20.4526367-1.4208984,2.1796875-2.2441406,3.4140625-2.7490234,4.6337891-.2519531.6113281-.4267578,1.1777344-.2822266,1.7304688.1455078.5917969.8818359.9990234,1.3554688.8574219,1.2607422-.3759766,2.0537109-3.2060547,3.0625-5.6455078,6.0673828-9.0136719,17.9423828-19.4042969,30.375-19.9575195,6.6542969-.2958984,10.5107422,2.0493164,10.7041016,6.3920898.2636719,5.9365234-6.3964844,13.2607422-14.0771484,18.3125-2.8154297-.4726562-6.2080078-.4423828-10.0175781.0869141,4.5898438-8.109375,9.6650391-16.0800781,13.0048828-19.1049805.1904297-.2070312.3369141-.4931641.3222656-.8125-.0244141-.5566406-.5234375-1.0151367-1.0820312-.9902344-.2392578.0107422-.4736328.1015625-.6660156.2705078-3.6455078,3.315918-9.3134766,12.3120117-14.1953125,21.0727539-4.9433594,1.0585938-8.2167969,2.8408203-7.75,5.2949219.3056641,1.4638672,1.5771484,2.2060547,3.6601562,2.3535156-1.4326172,2.8183594-2.7158203,5.390625-3.7001953,7.5107422C4.5425415,64.9912061-.1117554,68.9521436.0884399,73.4540967c.1542969,3.4677734,4.28125,5.5996094,10.0195312,5.34375,15.7792969-.7011719,31.2880859-11.9716797,30.8222656-22.4511719-.1826172-4.1044922-2.6640625-6.9091797-6.875-8.2773438ZM20.1607056,49.8837842c.3945312-.0976562.7919922-.1542969,1.2294922-.2128906,2.0996094-.3339844,4.6865234-.5283203,7.1650391-.4394531-3.5410156,2.0341797-7.1503906,3.4716797-10.2392578,4.0488281.5878906-1.1445312,1.2177734-2.2509766,1.8447266-3.3964844ZM13.1470337,52.8710889c-.1474609-.6328125,1.5664062-1.5878906,4.3261719-2.3886719-.5546875,1.0234375-1.1054688,2.0859375-1.6611328,3.0683594-1.6728516.0742188-2.6044922-.203125-2.6650391-.6796875ZM10.0161743,76.7265577c-4.5419922.2021484-7.7617188-1.2519531-7.8554688-3.3642578-.1367188-3.0673828,3.0888672-5.9667969,7.7646484-7.6513672-.3232422.8134766-.6113281,1.5039062-.7490234,2.0292969-.0332031.1210938-.0683594.2431641-.0625.3623047.0244141.5576172.5234375,1.0136719,1.0820312.9892578.4375-.0195312.8232422-.3144531.9638672-.7617188.2451172-.7685547.7119141-1.9472656,1.3671875-3.375,2.4873047-.6289062,5.2314453-.8701172,8.0322266-.7148438l.1201172-.0058594c.5576172-.0244141,1.015625-.5253906.9902344-1.0820312-.0244141-.5585938-.4433594-.9785156-1.0029297-.9931641-2.4414062-.1318359-4.8300781.0146484-7.0878906.4345703.9863281-2.0800781,2.1972656-4.4902344,3.5195312-7.0634766.359375-.0166016.7148438-.0722656,1.1123047-.1289062,4.0048828-.6191406,8.8994141-2.7919922,13.5566406-5.7939453,3.8261719.7470703,6.90625,2.6865234,7.0908203,6.8310547.4091797,9.2050781-14.2568359,19.6396484-28.8417969,20.2880859ZM192.2798462,31.3681592c-.0107422-.2382812.0986328-.4824219.2089844-.6464844.3769531-.5361328,1.0595703-1.3251953,1.46875-2.0214844.1484375-.2475586.4589844-.4208984.7783203-.4350586.5576172-.0249023,1.0576172.4326172,1.0830078.9902344.0097656.2392578-.0595703.4819336-.2099609.6879883-.4501953.6191406-1.0537109,1.4443359-1.4277344,1.9804688-.1904297.2480469-.5009766.4208984-.8193359.4345703-.5585938.0253906-1.0576172-.4316406-1.0820312-.9902344ZM263.1450806,61.9941358c-1.1357422-.3876953-2.6269531-.7216797-4.4365234-1-3.7802734-.6298828-7.3027344-.8330078-10.8886719-.6728516l-1.3554688.0595703c6.6376953-11.4335938,11.8320312-24.8017578,12.9912109-27.4873047.0722656-.1630859.1054688-.3242188.0986328-.4833984-.0253906-.5576172-.5244141-1.0146484-1.0820312-.9902344-.3994141.0175781-.7470703.2734375-.9296875.640625-.2890625.6914062-.8300781,1.9931641-1.5517578,3.7421875-.7246094-1.0458984-1.9521484-1.7099609-3.5058594-1.640625-2.7021484.119873-5.979248,2.1497803-8.8193359,4.9326172-.0483398-.005188-.0930176-.0256348-.1425781-.0234375-.2792969.0126953-.5117188.1435547-.6640625.3095703-6.5068359,6.3183594-13.4443359,12.8154297-17.9873047,13.0175781-.7177734.03125-.9667969-.1972656-1.0087891-1.1533203-.0712891-1.5947266.6943359-4.1435547,1.4970703-6.734375.7705078-2.4287109,1.5332031-5.0175781,1.4580078-6.6923828-.0722656-1.6328125-.9921875-2.5908203-2.5068359-2.5234375-3.3466797.1484375-7.8896484,3.9433594-16.5322266,13.3916016-.9160156.9589844-1.6767578,1.7910156-2.3652344,2.5019531-1.3740234,1.4169922-1.6445312.7109375-.9863281-.6367188,1.3925781-2.8164062,3.6201172-6.5888672,6.3896484-10.7441406,1.6386719-1.7890625,3.5859375-3.7529297,3.53125-4.9882812-.0244141-.5585938-.5566406-.8535156-1.0742188-.8300781-.6386719.0283203-1.2597656.4150391-1.7128906.9941406-.7548828.9921875-1.5761719,2.2666016-2.6572266,3.9912109-.4279785.6428833-.8381348,1.2729492-1.2397461,1.8963623-.0336914.0279541-.0776367.0482178-.105957.0792236-8.7255859,8.4941406-15.4707031,13.0263672-19.7744141,13.2177734-2.1123047.09375-2.9453125-.6689453-3.0371094-2.7412109-.1201172-2.7089844,2.5615234-8.8173828,5.7597656-13.2304688.1533203-.1660156.2216797-.4091797.2109375-.6494141-.0244141-.5566406-.5244141-1.0136719-1.0820312-.9892578-.3183594.0146484-.6308594.1875-.7802734.4335938-.8913574,1.2184448-1.9768066,2.9517822-2.9890137,4.8528442-.0322266.0269165-.0744629.0462036-.1018066.0758667-8.7255859,8.4941406-15.4707031,13.0253906-19.7744141,13.2167969-1.9921875.0888672-2.9589844-.9863281-3.0654297-3.3769531-.0693359-1.5537109.2363281-3.6835938.8847656-6.1484375,9.6669922-9.7724609,19.3740234-22.2216797,19.1845703-26.4853516-.078125-1.7529297-1.2001953-2.7412109-2.9541016-2.6635742-5.8974609.262207-13.1035156,13.2788086-16.7783203,24.0229492-.6279297-1.5693359-1.9023438-2.3916016-3.7353516-2.3095703-2.7644043.1228027-6.2058105,2.2368164-9.1950684,5.1072388-.1359863.0562744-.2575684.1313477-.3459473.2277222-6.5068359,6.3193359-13.4443359,12.8154297-17.9873047,13.0175781-.7167969.0322266-.9667969-.1962891-1.0087891-1.1523438-.0712891-1.5947266.6943359-4.1435547,1.4970703-6.734375.7705078-2.4296875,1.5332031-5.0185547,1.4580078-6.6933594-.0722656-1.6328125-.9921875-2.5908203-2.5058594-2.5234375-3.3476562.1494141-7.890625,3.9443359-16.5332031,13.3925781-.9160156.9580078-1.6767578,1.7900391-2.3642578,2.5009766-1.3740234,1.4169922-1.6455078.7109375-.9873047-.6357422,1.3925781-2.8164062,3.6210938-6.5888672,6.390625-10.7441406,1.6367188-1.7890625,3.5859375-3.7529297,3.53125-4.9882812-.0244141-.5585938-.5576172-.8535156-1.0751953-.8310547-.6386719.0283203-1.2597656.4150391-1.7119141.9951172-.7558594.9912109-1.5771484,2.265625-2.6582031,3.9912109-.2941895.4418945-.581543.8790894-.8632812,1.3120728-.1103516.0499878-.2119141.1181641-.3017578.2162476-7.1328125,8.421875-15.4306641,13.0244141-19.7353516,13.2158203-2.1113281.09375-2.9443359-.6679688-3.0361328-2.7402344-.1289062-2.9091797,2.8828125-8.7919922,5.7412109-12.7519531.1503906-.2060547.2597656-.4501953.2470703-.7294922-.0244141-.5576172-.5244141-1.015625-1.0820312-.9902344-.3193359.0136719-.5917969.1855469-.7412109.3916016-.6767578.9492188-1.4746094,1.8623047-2.1464844,2.890625-.8847656-1.9169922-2.8164062-3.1494141-5.046875-3.0498047-3.1655273.140625-7.2172852,2.9003906-10.4619141,6.4135132-1.7768555,1.2527466-4.8881836,3.1726685-7.8691406,3.3052368-1.4355469.0634766-1.8681641-.7158203-2.2851562-3.8105469-.4111328-2.9365234-1.0380859-4.4658203-3.0302734-4.3769531-2.5898438.1152344-8.1132812,4.3134766-13.2226562,9.7304688-1.2548828,1.3730469-1.6269531,1.1113281-.78125-.5234375,1.8720703-3.6767578,3.6162109-6.6689453,4.6699219-8.1132812.1523438-.1669922.2216797-.4091797.2109375-.6484375-.0244141-.5585938-.5244141-1.0146484-1.0820312-.9892578-.3193359.0136719-.5908203.1865234-.7792969.4345703-2.2236328,2.9726562-7.046875,12.1308594-8.6914062,17.3535156-.2109375.609375.0488281,1.0761719.6591797,1.3291016l.0810547.0361328c.6083984.2128906,1.0410156.0732422,1.375-.5009766,4.4697266-7.2255859,14.8632812-15.9121094,17.6533203-16.0361328.3974609-.0175781.5751953.3730469.8740234,2.5957031.2998047,2.2626953.7744141,5.7548828,4.4414062,5.5917969,1.5422363-.0688477,3.1003418-.538208,4.5244141-1.1539917-1.5146484,2.4224243-2.4458008,4.8636475-2.3574219,6.8473511.0898438,2.0322266,1.2128906,3.0195312,3.2451172,2.9287109,2.8691406-.1269531,6.7783203-2.8955078,13.1992188-9.3300781.4960938-.5,1.1289062-.6484375.8925781.3193359-.0986328.4833984-.3574219,1.8525391-.3095703,2.9287109.1435547,3.2275391,1.9736328,4.8642578,5.2001953,4.7207031,3.8666992-.171936,9.3413086-2.7767334,15.6611328-8.4028931-1.8735352,3.4296265-2.953125,6.0629272-2.8974609,7.3150024.0410156.9160156.6298828,1.5693359,1.5458984,1.5283203,1.2353516-.0546875,3.2929688-2.2617188,6.8740234-6.1347656,8.2255859-8.9501953,12.4892578-12.7324219,14.6806641-12.8300781.3994141-.0175781.7597656.0458984.7861328.6435547.0605469,1.3554688-.6396484,3.5419922-1.3701172,5.9697266-.7636719,2.5898438-1.6738281,5.4648438-1.5849609,7.4570312.0917969,2.0722656,1.2617188,3.2177734,3.1738281,3.1328125,3.467041-.1540527,7.8337402-3.1647339,12.25-7.0048218-.6098633,1.4508057-.9401855,2.8421631-.8857422,4.0643921.0888672,1.9921875,1.2128906,3.0205078,3.125,2.9355469,2.75-.1230469,8.4619141-4.5292969,14.5898438-10.390625-.2568359,1.4072266-.3613281,2.6503906-.3173828,3.6464844.1572266,3.5458984,2.0419922,5.4990234,5.2294922,5.3564453,4.2832031-.1904907,10.1621094-3.7280273,17.5827637-10.4969482-.6462402,1.7852173-1.0493164,3.477417-.9899902,4.8084717.1435547,3.2285156,1.9736328,4.8632812,5.2011719,4.7197266,3.9770508-.1768799,9.3295898-3.239624,16.0141602-9.0939941-1.9555664,3.5484009-3.0878906,6.2774658-3.0307617,7.5588379.0410156.9160156.6289062,1.5683594,1.5458984,1.5283203,1.234375-.0556641,3.2929688-2.2626953,6.8730469-6.1347656,8.2265625-8.9501953,12.4902344-12.7333984,14.6816406-12.8300781.3984375-.0185547.7597656.0449219.7861328.6425781.0605469,1.3554688-.6396484,3.5419922-1.3701172,5.9697266-.7636719,2.5898438-1.6738281,5.4658203-1.5849609,7.4580078.0917969,2.0722656,1.2617188,3.2177734,3.1738281,3.1328125,3.737793-.1668091,8.5205078-3.6496582,13.2849121-7.9172974-.8125,1.7532349-1.2697754,3.4614258-1.2038574,4.9436646.0888672,1.9921875,1.2128906,3.0205078,3.2451172,2.9306641,2.9882812-.1328125,7.6337891-4.2929688,11.3164062-8.5693359-2.1455078,4.7265625-4.7441406,9.9931641-7.5683594,14.75-12.1162109,1.3789062-21.2275391,6.5742188-20.9619141,12.5507812.1279297,2.8691406,2.6103516,4.8349609,5.8789062,4.6894531,5.4179688-.2402344,11.1855469-7.0048828,16.2099609-15.2539062.9150391-.0810547,1.8291016-.1621094,2.7460938-.2021484,3.625-.1611328,7.1884766.0800781,10.6933594.7617188,2.2763672.8974609,4.6835938,2.0683594,5.7314453,1.3828125.4658203-.2998047.5947266-.984375.2890625-1.5703125-.2167969-.3886719-.7509766-.7246094-1.4804688-.9726562ZM180.1323853,18.5346631c.5986328-.0263672.7714844.284668.7890625.6831055.1416016,3.1875-7.5595703,13.1523438-15.8310547,21.9853516,3.3828125-10.1318359,10.0615234-22.4467773,15.0419922-22.668457ZM76.1460571,59.2119092c-.8779297.0390625-1.0429688-.1132812-1.0800781-.9501953-.1142578-2.5665894,2.0651855-6.2922363,4.9260254-9.4281616.2045898-.145752.392334-.2820435.5476074-.3970337.1877441-.147522.3295898-.3529053.3959961-.5841675,2.7226562-2.7227783,5.8649902-4.8050537,8.2211914-4.9099731,1.7128906-.0761719,3.0820312,1.0605469,3.3945312,2.7236328-8.5322266,9.2431641-13.6162109,13.421875-16.4052734,13.5458984ZM162.0366821,44.3730421c-6.5693359,6.6796875-12.9589844,12.0351562-15.5498047,12.1503906-.7568359.0332031-.9228516-.1191406-.9599609-.9560547-.2304688-5.1806641,8.8710938-15.0869141,14.0908203-15.3193359,1.3554688-.0605469,2.0332031.828125,2.0009766,2.7861328-.0097656.6777344.1269531,1.0722656.4882812,1.0966797-.0371094.0810547-.0332031.1611328-.0703125.2421875ZM240.1978149,52.3554639c-.8769531.0390625-1.0429688-.1132812-1.0800781-.9501953-.234375-5.2607422,8.3183594-14.9423828,13.4589844-15.1708984,1.5136719-.0673828,2.3662109,1.1308594,1.8232422,2.3935547-3.6728516,6.2714844-11.2529297,13.5966797-14.2021484,13.7275391ZM228.8638306,75.7763624c-2.1523438.0957031-3.640625-1.0351562-3.7148438-2.7089844-.1943359-4.3828125,7.4394531-8.6757812,17.5146484-10.1621094-4.4345703,7.1044922-9.2978516,12.6708984-13.7998047,12.8710938ZM327.6860962,33.8515577c-.2392578.0107422-.4746094.1015625-.6669922.2695312-3.8056641,3.3232422-8.6191406,7.2900391-13.7607422,10.1542969-.625.3476562-1.2080078.6914062-1.7929688.9970703-.1650391-.1113281-.3710938-.2626953-.5380859-.4150391-2.1220703-1.9414062-3.1914062-4.4492188-3.3330078-7.6376953l-.0107422-.2382812c1.3554688-.9384766,2.8662109-1.9638672,4.5332031-3.0761719,9.2294922-6.1601562,12.0029297-8.4394531,11.9052734-10.6308594-.0761719-1.7138672-1.3164062-2.6567383-3.1894531-2.5732422-2.9882812.1328125-6.2382812,1.5551758-9.0068359,3.9545898-3.6152344,3.1147461-5.9443359,7.2905273-6.2871094,11.2592773-9.0195312,6.3505859-12.2958984,9.8886719-12.1474609,13.2363281.0957031,2.1523438,1.7050781,3.3173828,4.4140625,3.1972656,3.3867188-.1513672,8.1464844-1.7597656,13.4892578-4.6328125,3.453125,2.2421875,8.3759766,3.3808594,13.6748047,3.1455078.5585938-.0244141,1.0146484-.5244141.9892578-1.0820312-.0244141-.5585938-.5234375-1.0146484-1.0820312-.9902344-3.5859375.1591797-7.9599609-.3251953-11.4765625-2.2041016.3115234-.1738281.5830078-.3457031.8955078-.5195312,5.2607422-2.9091797,10.6464844-6.5820312,14.1503906-10.4111328.1894531-.2080078.3369141-.4941406.3222656-.8125-.0244141-.5585938-.5244141-1.0146484-1.0820312-.9902344ZM313.1724243,26.1928663c2.4589844-2.1459961,5.1630859-3.3041992,7.7529297-3.4194336.796875-.0356445,1.0029297.1147461,1.0244141.5932617.0410156.9169922-2.5302734,3.2661133-11.0253906,8.8344727-1.0478516.6865234-2.0556641,1.3691406-2.9833984,2.0488281.7099609-2.8662109,2.5791016-5.7436523,5.2314453-8.0571289ZM297.7134399,50.2763624c-1.59375.0703125-2.2089844-.3007812-2.25-1.2177734-.1005859-2.2714844,2.6806641-5.2695312,10.1464844-10.671875.3427734,3.2197266,1.7001953,5.9130859,3.90625,7.9306641-4.7617188,2.4492188-8.8935547,3.8291016-11.8027344,3.9589844ZM417.2593384,57.7363233c-.9306641-.2783203-2.2724609.9794922-2.8330078,1.8427734-.3759766.5351562-.3583984.9345703-.2089844,1.5654297-1.0449219.765625-2.7744141,1.3613281-4.9267578,1.4570312-5.21875.2324219-15.2158203-2.7958984-24.5244141-5.6162109-5.7451172-1.7011719-11.2490234-3.3720703-15.1142578-4.0791016,1.5751953-3.1845703,3.4306641-7.2587891,5.7529297-12.5136719,5.8037109-13.1142578,12.3007812-27.7353516,18.7324219-32.1337891,1.1738281-.5317383,2.4863281-.6704102,3.5078125-1.034668.7080078-.230957,1.0029297-.8037109.9775391-1.3613281-.0244141-.5585938-.5244141-1.0151367-1.4414062-.9741211-8.4863281.3774414-16.7949219,19.1523438-23.6904297,34.671875-2.4648438,5.6181641-4.4335938,9.8583984-6.0478516,13.0449219-.4814453-.0585938-.9619141-.0771484-1.3603516-.0595703-4.4628906.1982422-8.421875,3.6484375-8.2636719,7.1953125.0986328,2.2314453,1.9179688,3.6269531,4.1708984,3.1289062,1.9355469-.4863281,3.7978516-2.6054688,6.6699219-8.0429688,3.6181641.5576172,9.3261719,2.2998047,15.5185547,4.1806641,9.3056641,2.7802734,19.6259766,5.9140625,25.2041016,5.6660156,3.1884766-.1416016,5.7714844-1.2949219,7.8535156-3.8632812.9794922-1.3203125,1.3583984-2.6953125.0234375-3.0742188ZM361.5005493,60.8154249c-.9472656.2412109-1.5673828-.2109375-1.609375-1.1669922-.1044922-2.3505859,2.9765625-4.8837891,6.2841797-5.0302734l.2382812-.0107422c-2.2861328,4.2539062-3.7275391,5.9541016-4.9130859,6.2080078ZM563.0444946,10.008296c-6.0019531-.2910156-12.4160156-.0053711-18.5.5839844,2.5400391-3.9467773,4.8330078-7.1611328,6.4355469-8.8305664.1904297-.2080078.296875-.4916992.2841797-.7709961-.0244141-.5576172-.5244141-1.0146484-1.0810547-.9897461-.2792969.012207-.5126953.1420898-.7050781.3110352-1.8320312,1.9179688-4.5722656,5.8325195-7.5166016,10.5146484-5.3642578.5986328-10.4013672,1.3413086-14.6025391,2.0463867-.5146484.1035156-.8935547.5595703-.8710938,1.0771484.0253906.5576172.5253906,1.0146484,1.0830078.9902344.0400391-.0019531.0791016-.0039062.1191406-.0053711,3.7636719-.6469727,8.1660156-1.3212891,12.8925781-1.8515625-2.541748,4.1985474-5.1269531,8.8340454-7.3105469,13.1778564-.1166992-.0401611-.239502-.0658569-.3671875-.0601807-.2783203.0126953-.5117188.1430664-.6640625.3095703-8.7265625,8.4941406-15.4716797,13.0253906-19.7744141,13.2167969-2.1123047.0947266-2.9443359-.6679688-3.0361328-2.7402344-.1503906-3.3867188,3.0322266-8.9980469,5.7763672-12.8334961.1523438-.1665039.2216797-.4082031.2109375-.6474609-.0244141-.5585938-.5234375-1.0151367-1.0820312-.9902344-.3193359.0141602-.6308594.1875-.8193359.4350586-.5253906.7431641-1.5751953,2.2666016-1.6113281,2.3486328-5.1386719,8.3730469-11.4560547,14.4433594-15.0820312,14.6044922-.7578125.0332031-1.1767578-.4267578-1.2607422-1.4208984-.1914062-2.5068359,1.9648438-6.9941406,5.9580078-12.362793.1503906-.206543.2197266-.4492188.2089844-.6884766-.0244141-.5576172-.5234375-1.0136719-1.0820312-.9892578-.3193359.0141602-.6308594.1870117-.7792969.4331055-.7434082.9990845-1.4223633,1.9672241-2.0432129,2.9053955-.2717285.0563354-.4875488.2041626-.6433105.4090576-1.3476562,2.015625-7.6386719,9.5625-15.6484375,9.9189453-.5576172.0253906-1.078125.0078125-1.5595703-.0507812,2.1005859-3.0478516,3.5351562-6.7050781,3.4013672-9.6948242-.125-2.828125-1.796875-4.5112305-4.3867188-4.3959961-2.8691406.1279297-5.0888672,2.3027344-5.7910156,5.3681641l-.1386719-.144104c-.0083008-.0081177-.0148926-.0169067-.0236816-.0247192l-.1315918-.1368408c-.0898438-.0996704-.2202148-.124939-.3701172-.0960693-.0761719-.0150757-.1496582-.0412598-.2294922-.0377197-.2792969.012207-.5117188.1430664-.7041016.3110352-8.3671875,8.4780273-16.2998047,14.1401367-23.2265625,18.2016602,5.3066406-9.9384766,9.1025391-19.769043,9.6865234-20.9936523.0742188-.121582.1074219-.2827148.0986328-.4829102-.0253906-.5576172-.5234375-1.0151367-1.0820312-.9902344-.3583984.0161133-.6689453.2304688-.8564453.5175781-5.8759766,9.6845703-12.9853516,16.8271484-16.7705078,16.9960938-.7568359.0332031-1.1777344-.4267578-1.2607422-1.4208984-.1845703-2.3476562,2.3984375-7.09375,7.2773438-13.2202148.1503906-.2060547.2216797-.4086914.2089844-.6879883-.0253906-.5576172-.5244141-1.0151367-1.0820312-.9902344-.3193359.0141602-.5927734.1455078-.78125.3945312-.9165039,1.163147-1.7514648,2.274292-2.5117188,3.3371582-.1955566.0394897-.3740234.1131592-.5185547.2702637-7.1318359,8.421875-15.4306641,13.0244141-19.734375,13.2158203-2.1113281.09375-2.9453125-.6679688-3.0371094-2.7402344-.1289062-2.9091797,2.8828125-8.7910156,5.7412109-12.7514648.1513672-.2060547.2597656-.4506836.2470703-.7299805-.0244141-.5576172-.5244141-1.0146484-1.0820312-.9902344-.3193359.0141602-.5917969.1860352-.7412109.3920898-.6767578.9492188-1.4746094,1.8623047-2.1464844,2.8901367-.8837891-1.9165039-2.8154297-3.1489258-5.046875-3.0493164-6.3759766.2832031-16.3515625,11.1879883-16.0712891,17.4838867.0898438,2.0322266,1.2128906,3.0195312,3.2451172,2.9296875,2.8691406-.1279297,6.7783203-2.8955078,13.1992188-9.3300781.4970703-.5009766,1.1289062-.6494141.8925781.3193359-.0986328.4824219-.3564453,1.8525391-.3085938,2.9287109.1435547,3.2275391,1.9726562,4.8632812,5.2001953,4.7197266,3.9511719-.1757202,9.5800781-2.8860474,16.0751953-8.7706909-.8149414,1.8161621-1.1953125,3.3447876-1.09375,4.5490112.1708984,2.0693359,1.4677734,3.4101562,3.4208984,3.3232422,3.3076172-.1474609,7.9736328-3.8691406,12.6669922-9.6679688-1.8886719,4.2373047-4.3740234,9.4179688-7.1083984,14.3710938-4.1308594,2.2597656-7.8486328,3.9414062-11.0195312,5.3603516-6.8896484,3.1015625-11.6240234,5.2685547-11.4277344,9.6914062.1279297,2.8691406,2.6103516,4.8349609,5.8779297,4.6904297,6.0966797-.2714844,12.5849609-8.7851562,17.9599609-18.1269531,6.3857422-3.5056152,13.8198242-8.3365479,21.7456055-15.531189-.5805664,1.6400146-.8930664,3.3152466-.824707,4.8583374.1171875,2.6298828,1.7441406,4.1943359,4.2539062,4.0830078,2.2314453-.0996094,4.7871094-1.8896484,6.9121094-4.3798828.9296875.2382812,1.9326172.3535156,3.0478516.3037109,5.0791016-.2255859,9.5097656-3.0206909,12.6513672-5.7678833-.6088867,1.6369019-.8806152,3.0656738-.7832031,4.2415161.1728516,2.0683594,1.4697266,3.4091797,3.421875,3.3222656,2.9492188-.1318359,6.8183594-2.8984375,10.6943359-7.3027344-.1992188.8867188-.2832031,1.6884766-.2509766,2.4052734.1435547,3.2285156,1.9726562,4.8632812,5.2001953,4.7197266,4.5234375-.2011108,10.8256836-4.138855,18.8432617-11.6672363-2.2636719,4.8986816-3.7504883,9.0574951-3.6557617,11.1916504.1279297,3.7871094,2.4550781,5.8398438,6.4394531,5.6630859,4.34375-.1933594,14.5361328-4.4394531,20.2773438-13.5986328.1123047-.1650391.1835938-.3671875.1728516-.6054688-.0244141-.5585938-.5244141-1.015625-1.0820312-.9902344-.359375.015625-.6679688.2285156-.8554688.5166016-5.3691406,8.5429688-14.6591797,12.4296875-18.6044922,12.6054688-2.8291016.1259766-4.1982422-1.0498047-4.2763672-3.6826172-.1894531-4.2626953,6.9423828-18.0751953,13.3486328-28.4223633,6.4785156-.6870117,13.3701172-1.0327148,19.7714844-.7197266.0400391-.0019531.0791016-.003418.1191406-.0053711.5585938-.0249023,1.015625-.5234375.9902344-1.0820312-.0244141-.5566406-.4414062-.9785156-1.0019531-.9936523ZM402.0620728,44.7177686c-.8769531.0380859-1.0429688-.1132812-1.0800781-.9501953-.2304688-5.1796875,8.8710938-15.0878906,14.0908203-15.3198242,1.7128906-.0766602,3.0820312,1.0605469,3.3955078,2.7231445-8.5322266,9.2431641-13.6171875,13.421875-16.40625,13.546875ZM428.4380493,66.9013624c-2.1513672.0957031-3.6396484-1.0361328-3.7138672-2.7099609-.1347656-3.0283203,3.3076172-4.6191406,10.1972656-7.7197266,2.4267578-1.1064453,5.2060547-2.3486328,8.2519531-3.8798828-4.6474609,7.7119141-9.9140625,14.0947266-14.7353516,14.3095703ZM471.5728149,42.1845655c-1.3544922.0605469-2.0224609-.5878906-2.0898438-2.1025391-.1279297-2.8691406,1.2744141-6.3652344,3.4804688-8.8183594-.0292969.2412109-.0185547.4794922-.0078125.71875.1435547,3.2275391,1.4501953,5.6845703,3.6259766,7.0253906-1.6357422,1.8291016-3.4541016,3.1074219-5.0087891,3.1767578ZM477.9058228,37.3505811c-1.7597656-.9589844-2.7607422-2.8310547-2.8779297-5.4609375-.1435547-3.2275391,1.5800781-5.7392578,4.0517578-5.8496094,1.3945312-.0620117,2.1464844.703125,2.2226562,2.4160156.1171875,2.6308594-1.3632812,6.1298828-3.3964844,8.8945312Z" style="fill:#fff; stroke-width:0px;"/></svg>