<svg width="300" height="156" viewBox="0 0 300 156" fill="none" xmlns="http://www.w3.org/2000/svg">
<g clip-path="url(#clip0_292_373)">
<path d="M-26.2998 145.2C-20.1998 146.8 -14.9998 143 -12.9998 137.4C-7.99981 123.5 4.40019 113 18.4002 108.9C33.3002 104.6 48.1002 107.3 62.3002 112.9C77.5002 119 92.2002 126.2 109 125.9C123.3 125.6 137.5 121 149.6 113.3C177.3 95.6 187.9 63.1 212.5 42.3C223.1 33.3 236 27 249.6 24.2C264.6 21.1 279.9 24.4 294.1 29.2C310.7 34.7 326.5 43.8 343.9 46.1C361.4 48.4 380.5 42.4 389 25.9" stroke="#F48E1A" stroke-width="20" stroke-miterlimit="10"/>
<path d="M271.6 19.2999L271.66 19.3056L269.9 23.9999L269 18.9999L267 18.7999L265.5 23.5999L264.2 18.5999L262.1 18.3999L264.3 27.4999L266.3 27.6999L267.6 23.3999L268.4 27.8999L270.4 28.0999L273.7 19.4999L271.66 19.3056L271.7 19.1999L271.6 19.2999Z" fill="white"/>
<path d="M254 22.6V21.2001L257.6 20.8L257.4 18.8L251.8 19.4L252.7 28.2001L258.3 27.6L258.1 25.6C258.1 25.6 254.5 26 254.4 26V24.6L257.3 24.3L257.1 22.3C257.1 22.3 254.1 22.6 254 22.6Z" fill="white"/>
<path d="M250.5 21.7001L248.8 22.0001L250.2 28.7001L248.2 29.1001L246.8 22.4001L245.2 22.7001L244.8 20.7001L250.1 19.6001L250.5 21.6001V21.7001Z" fill="white"/>
<path d="M244.1 30.2L246.1 29.7L243.8 21.2L241.8 21.7L244.1 30.2Z" fill="white"/>
<path d="M240.8 31.4C240.65 31.4 240.525 31.425 240.4 31.4501C240.275 31.475 240.15 31.5 240 31.5H239.1C238.6 31.4 238.2 31.1 237.8 30.8C237.4 30.5 237.2 30 237 29.5L238.9 28.9C238.9 29.1 239.1 29.3 239.2 29.4C239.244 29.4439 239.307 29.4685 239.364 29.4908C239.437 29.5193 239.5 29.5439 239.5 29.6H240C240.2 29.6 240.3 29.5 240.4 29.4L240.6 29.2001V28.5C240.6 28.5 240.6 28.4 240.5 28.3L240.3 28.1H238.7C238.5 28.1 238.2 28.1 238 28C237.7 28 237.4 27.8001 237.1 27.6C236.8 27.4 236.6 27.2 236.4 26.9C236.2 26.6001 236.1 26.3001 236 26.0002L236 25C236 24.7563 236.132 24.5125 236.235 24.3223L236.236 24.3215L236.238 24.3178L236.239 24.3151C236.261 24.274 236.282 24.2354 236.3 24.2001C236.4 23.9001 236.6 23.7001 236.8 23.5C236.9 23.4 237.025 23.3251 237.15 23.25C237.275 23.175 237.4 23.1 237.5 23C237.8 22.9 238.1 22.8 238.4 22.8H239.3C239.487 22.8 239.635 22.8778 239.793 22.9606C239.888 23.0106 239.987 23.0624 240.1 23.1C240.365 23.1885 240.474 23.3552 240.634 23.6C240.655 23.6319 240.677 23.6655 240.7 23.7001C240.9 23.9001 241 24.2001 241.1 24.5L239.2 25.1C239.2 24.9 239 24.8 238.9 24.8H238.3C238.3 24.8 238.2 24.8 238.1 24.9C238.1 24.9 238 25.1 238 25.2001V25.6C238 25.7001 238.2 25.8 238.3 25.8H240.1C240.7 25.8 241.2 26.1 241.6 26.4C242 26.7 242.3 27.2001 242.5 27.7001C242.7 28.2001 242.7 28.8 242.5 29.3C242.4 29.8 242.1 30.3001 241.6 30.7001C241.4 30.9001 241.3 31 241.1 31.1L240.5 31.4H240.8Z" fill="white"/>
<path fill-rule="evenodd" clip-rule="evenodd" d="M234.727 27.7055C235.215 27.8073 235.605 28.0054 235.9 28.2999C236.2 28.5999 236.5 28.9 236.7 29.4C236.9 29.7999 236.9 30.2 236.9 30.6C236.9 31 236.8 31.4 236.6 31.7999C236.4 32.2 236.2 32.5 235.9 32.7999C235.6 33.0999 235.2 33.2999 234.8 33.5L232.4 34.5L229 26.2999L231.2 25.4C231.5 25.2999 231.9 25.2 232.2 25.2C232.5 25.2 232.9 25.1999 233.2 25.4C233.5 25.5 233.8 25.6999 234 25.9C234.2 26.1 234.4 26.4 234.6 26.7C234.78 27.0593 234.798 27.4187 234.727 27.7055ZM231.9 28.2L231.6 27.4L231.5 27.2999H232.3C232.5 27.4 232.6 27.5 232.6 27.5V27.7999L232.2 28.2H231.9ZM234.328 31.3836C234.247 31.4832 234.153 31.6 234 31.6V31.4L233.5 31.6C233.5 31.6 232.8 29.8 232.8 29.7H233.3C233.5 29.6 233.6 29.6 233.8 29.6H234.3C234.376 29.6381 234.438 29.6763 234.491 29.709C234.576 29.7618 234.638 29.7999 234.7 29.7999C234.8 29.9 234.9 30 234.9 30.1V30.5C234.8 30.6 234.7 30.7999 234.7 30.9C234.6 31.1 234.5 31.1999 234.4 31.2999C234.377 31.3233 234.353 31.352 234.329 31.3824L234.328 31.3836Z" fill="white"/>
<path d="M224.9 30.6L225.5 31.7999L228.1 30.5L229 32.2999L226.4 33.5999L227 34.7999L230.2 33.2L231.1 35L226.1 37.5999L222.1 29.7999L227.1 27.2L228 29L224.8 30.6H224.9Z" fill="white"/>
<path d="M221 30L219.2 31.2L220.7 36.1L217 32.7L215.3 33.8L217 38.5L213 35.3L211.2 36.5L218.5 42.3L220.2 41.2L218.6 36.9L222 40L223.7 38.9L221 30Z" fill="white"/>
<path d="M206.5 43.2001L207.4 44.2001L209.6 42.3L210.9 43.8L208.7 45.7001L209.6 46.8L212.3 44.4001L213.6 45.9001L209.3 49.6L203.5 43L207.8 39.3L209.1 40.8L206.4 43.2001H206.5Z" fill="white"/>
<path d="M202.8 46.6L204 45.4L202.6 44L198.8 47.8L200.2 49.2L201.4 48L206.2 52.8L207.6 51.4L202.8 46.6Z" fill="white"/>
<path d="M204.6 54.5L203.2 56L196.7 50L198.1 48.5L204.6 54.5Z" fill="white"/>
<path d="M200.4 59.3999L201 58.7999V58.5999C201.2 58.4999 201.3 58.2999 201.4 58.0999C201.6 57.8999 201.7 57.6999 201.7 57.4999C201.9 56.9999 201.9 56.3999 201.7 55.8999C201.5 55.3999 201.2 54.9999 200.8 54.5999C200.3 54.1999 199.8 53.8999 199.3 53.8999C198.8 53.8999 198.2 53.9999 197.7 54.1999C197.6 54.2999 197.4 54.3999 197.3 54.3999C197.183 54.3999 197.1 54.4685 197.032 54.5254C196.983 54.5656 196.942 54.5999 196.9 54.5999C196.8 54.6999 196.6 54.7999 196.5 54.7999C196.3 54.9999 196.2 54.9999 196.1 54.9999H195.7C195.5 54.8999 195.4 54.7999 195.4 54.6999V54.1999L195.5 53.9999C195.6 53.8999 195.7 53.8999 195.8 53.8999C195.9 53.7999 196.1 53.8999 196.2 53.9999L197.5 52.4999C197.426 52.4627 197.351 52.4117 197.272 52.3571C197.138 52.2649 196.989 52.1627 196.8 52.0999C196.6 51.8999 196.3 51.8999 196 51.8999C195.91 51.8999 195.8 51.9201 195.679 51.9424C195.531 51.9696 195.365 51.9999 195.2 51.9999C194.9 52.0999 194.7 52.1999 194.4 52.3999C194.173 52.4756 194.003 52.6661 193.847 52.8409C193.797 52.8969 193.749 52.9514 193.7 52.9999C193.659 53.0623 193.617 53.1204 193.577 53.1759C193.426 53.3872 193.3 53.5625 193.3 53.7999C193.2 54.0999 193.2 54.3999 193.2 54.6999C193.2 54.9999 193.3 55.2999 193.4 55.5999C193.5 55.8999 193.7 56.1999 193.9 56.3999C194.2 56.6999 194.4 56.8999 194.7 56.9999C195 57.0999 195.3 57.1999 195.6 57.1999C195.815 57.1999 196 57.1712 196.173 57.1445C196.322 57.1214 196.461 57.0999 196.6 57.0999C196.9 56.9999 197.1 56.8999 197.3 56.7999L197.9 56.4999C198 56.3999 198.2 56.2999 198.2 56.2999C198.3 56.1999 198.5 56.1999 198.5 56.1999H199.4L199.5 56.2999C199.6 56.3999 199.6 56.4999 199.6 56.4999V57.0999C199.6 57.1999 199.5 57.3999 199.4 57.4999C199.3 57.6999 199.2 57.7999 199 57.7999H198.6C198.5 57.7999 198.3 57.7999 198.1 57.5999L196.8 59.0999C197.2 59.4999 197.6 59.6999 198.1 59.7999C198.6 59.9999 199.1 59.8999 199.6 59.7999C199.9 59.6999 200.2 59.5999 200.4 59.3999Z" fill="white"/>
<path fill-rule="evenodd" clip-rule="evenodd" d="M194.094 58.5812L194.088 58.5823C193.892 58.2882 193.694 57.9941 193.4 57.7001C193.375 57.6838 193.352 57.6675 193.328 57.6513C193.303 57.6334 193.277 57.6156 193.253 57.5981C193.025 57.4373 192.831 57.3 192.5 57.3H191.5C191.2 57.4 190.9 57.5 190.6 57.7001C190.3 57.9001 190 58.1001 189.8 58.4001L188.3 60.2001L195.2 65.7L196.8 63.7001C197 63.4334 197.111 63.1667 197.222 62.9C197.278 62.7667 197.333 62.6334 197.4 62.5C197.6 62.1 197.6 61.7001 197.6 61.3C197.6 60.9 197.5 60.5 197.3 60.1C197.1 59.8 196.8 59.5 196.5 59.2001C196.1 58.9001 195.7 58.6 195.3 58.6C194.925 58.4127 194.55 58.4886 194.094 58.5812ZM191.1 59.8L191.7 60.3L191.9 60C191.918 59.9632 191.937 59.9298 191.954 59.8984L191.978 59.857C192.046 59.7393 192.1 59.6465 192.1 59.5V59.2001H191.8C191.7 59.2001 191.5 59.3 191.4 59.5L191.1 59.8ZM195.2 62.4001C195.25 62.3501 195.3 62.2751 195.35 62.2001C195.4 62.125 195.45 62.05 195.5 62C195.5 61.8 195.5 61.7001 195.6 61.5V61.1C195.6 61 195.5 60.9 195.4 60.8C195.358 60.8 195.317 60.7829 195.268 60.7628C195.2 60.7344 195.117 60.7001 195 60.7001H194.6C194.5 60.7001 194.3 60.8001 194.2 60.9001C194.1 60.9001 193.9 61.1 193.8 61.3V61.5H193.6L193.4 61.7001L194.9 62.9001L195.2 62.5V62.4001Z" fill="white"/>
<path d="M187.9 66.2999L186.8 65.4999H186.7L188.9 62.5999L187.3 61.3999L183.9 65.8999L191 71.0999L194.4 66.5999L192.8 65.3999L190.6 68.2999L189.5 67.4999L191.3 65.0999L189.7 63.8999L187.9 66.2999Z" fill="white"/>
<path d="M182.4 68L183.6 66.3L189.3 73.5L188.1 75.1L183.8 73.5L186.8 76.9L185.6 78.5L176.7 75.8L177.9 74.1L182.8 75.6L179.4 71.9L180.6 70.3L185.3 72.1L182.1 68.1L182.4 68Z" fill="white"/>
<path d="M174.747 82.6346L175.8 83.4001L177.5 81.0001L179.1 82.2001L177.4 84.6001L178.5 85.4001L180.6 82.5001L182.2 83.7001L178.9 88.3001L171.8 83.2001L175.1 78.6001L176.8 79.8001L174.747 82.6346Z" fill="white"/>
<path d="M173.1 84.7L172.1 86.1L177.6 90.2L176.4 91.8L170.9 87.7L169.9 89L168.3 87.8L171.5 83.5L173.1 84.7Z" fill="white"/>
<path d="M173.8 95.2L175 93.6L168 88.2L166.8 89.8L173.8 95.2Z" fill="white"/>
<path fill-rule="evenodd" clip-rule="evenodd" d="M171 98.6001C170.8 98.8001 170.5 98.9001 170.2 99.0001C169.7 99.2001 169.2 99.2001 168.7 99.0001C168.386 99.0001 168.111 98.8815 167.826 98.7188C167.923 98.8654 168.012 99.0229 168.1 99.2001C168.3 99.6001 168.3 100 168.3 100.4C168.3 100.8 168.3 101.2 168.1 101.6C167.9 102 167.7 102.4 167.4 102.7L165.7 104.6L159.2 98.7001L160.8 97.0001C161 96.7001 161.3 96.5001 161.6 96.4001C161.688 96.371 161.775 96.3334 161.865 96.2947C162.083 96.2006 162.317 96.1001 162.6 96.1001H163.6C163.9 96.1001 164.2 96.4001 164.4 96.6001C164.7 96.9001 164.9 97.2001 165 97.6001H166.2C166.6 97.7001 167 97.9001 167.4 98.2001C167.412 98.2117 167.423 98.2233 167.434 98.2348L168.6 96.8001C168.8 97.0001 169 97.0001 169.1 97.0001H169.5C169.7 97.0001 169.8 96.9001 169.9 96.7001C170 96.6001 170.1 96.4001 170.1 96.3001V95.7001C170.1 95.6576 170.1 95.6332 170.093 95.6114C170.082 95.582 170.058 95.5576 170 95.5001L169.9 95.4001L169.876 95.3765L169.865 95.365C169.861 95.3613 169.858 95.3588 169.856 95.3573C169.853 95.3558 169.852 95.3554 169.851 95.3559C169.846 95.359 169.864 95.4001 169.8 95.4001H169C169 95.4001 168.8 95.4001 168.7 95.5001C168.7 95.5001 168.5 95.6001 168.4 95.7001L167.8 96.0001C167.6 96.1001 167.4 96.2001 167.1 96.3001C166.8 96.4001 166.5 96.4001 166.1 96.4001C165.8 96.4001 165.5 96.4001 165.2 96.2001C165.05 96.1002 164.925 96.0252 164.8 95.9503C164.676 95.8753 164.55 95.8 164.4 95.7001C164.2 95.5001 164 95.2001 163.9 94.9001C163.8 94.6001 163.7 94.3001 163.7 94.0001V93.1001C163.7 92.8627 163.825 92.688 163.977 92.4767C163.996 92.4496 164.016 92.4218 164.036 92.3932C164.057 92.3631 164.079 92.3322 164.1 92.3001C164.164 92.2368 164.227 92.1634 164.293 92.0864C164.437 91.9201 164.595 91.7368 164.8 91.6001C165 91.4001 165.3 91.3001 165.6 91.2001C165.765 91.2001 165.931 91.1698 166.079 91.1425C166.2 91.1203 166.31 91.1001 166.4 91.1001C166.7 91.1001 167 91.1001 167.2 91.3001C167.438 91.3001 167.612 91.4253 167.824 91.5767L167.888 91.6224C167.905 91.6348 167.923 91.6474 167.941 91.6599L167.956 91.6702C167.97 91.6801 167.985 91.6901 168 91.7001L166.7 93.3001C166.6 93.2001 166.4 93.1001 166.3 93.2001C166.25 93.2501 166.2 93.2501 166.15 93.2501C166.1 93.2501 166.05 93.2501 166 93.3001L165.9 93.5001V94.0001C165.9 94.0668 165.989 94.1334 166.078 94.2001C166.122 94.2334 166.167 94.2668 166.2 94.3001C166.27 94.3698 166.388 94.3423 166.487 94.3193C166.53 94.3093 166.57 94.3001 166.6 94.3001C166.662 94.3001 166.724 94.2619 166.809 94.2091C166.862 94.1765 166.924 94.1382 167 94.1001C167.05 94.1001 167.125 94.0501 167.2 94.0001C167.275 93.9501 167.35 93.9001 167.4 93.9001C167.442 93.9001 167.483 93.8658 167.532 93.8256C167.6 93.7687 167.683 93.7001 167.8 93.7001C167.917 93.7001 168 93.6315 168.069 93.5746C168.117 93.5344 168.159 93.5001 168.2 93.5001C168.7 93.2001 169.3 93.2001 169.8 93.2001C170.3 93.2001 170.8 93.5001 171.3 93.8001C171.7 94.2001 172 94.6001 172.2 95.1001C172.4 95.6001 172.4 96.2001 172.2 96.7001C172.2 96.9001 172.1 97.1001 172 97.3001C171.9 97.5001 171.8 97.7001 171.6 97.8001V98.0001L171 98.6001ZM162.7 98.9001L162.5 99.1001L161.9 98.6001H162L162.2 98.4001C162.3 98.2001 162.4 98.1001 162.6 98.1001H162.9V98.4001C162.9 98.5465 162.847 98.6393 162.779 98.757L162.778 98.7586C162.764 98.7818 162.75 98.8059 162.736 98.8316L162.72 98.8626C162.713 98.8747 162.707 98.8872 162.7 98.9001ZM165.95 101.2C165.9 101.275 165.85 101.35 165.8 101.4H165.9L165.5 101.8L164.1 100.5L164.3 100.3H164.5V100.1C164.6 100 164.8 99.8001 164.9 99.8001C165 99.6001 165.2 99.6001 165.3 99.6001H165.7C165.8 99.7001 166 99.8001 166 99.8001C166.1 99.9001 166.2 100 166.2 100.1V100.5C166.2 100.7 166.2 100.9 166.1 101C166.05 101.05 166 101.125 165.95 101.2Z" fill="white"/>
<path d="M157.4 103.2L158.3 104.1L160.4 102L161.8 103.5L159.7 105.5L160.7 106.5L163.3 104L164.7 105.5L160.7 109.4L155.604 104.137L158.6 111.5L157 112.7L153.3 110L155.3 114.1L153.7 115.3L145.9 110.2L147.6 108.9L151.9 111.7L149.7 107.2L151.3 106L155.3 109L153.4 104.3V104.2L154.701 103.205L154.6 103.1L158.6 99.1001L160 100.6L157.4 103.1V103.2Z" fill="white"/>
<path d="M37.0996 111.6C37.2996 111.8 37.5996 111.8 37.8996 111.8H38.6996C38.8996 111.7 39.0996 111.6 39.2996 111.6C39.7996 111.4 40.2996 111 40.5996 110.6C40.9996 110.2 41.1996 109.7 41.1996 109.1C41.2996 108.5 41.1996 108 40.8996 107.5C40.5996 107.1 40.1996 106.7 39.6996 106.4C39.6496 106.35 39.5746 106.325 39.4996 106.3C39.4246 106.275 39.3496 106.25 39.2996 106.2C39.1996 106.1 38.9996 106 38.8996 106C38.8378 105.938 38.776 105.915 38.6906 105.882C38.6378 105.862 38.576 105.838 38.4996 105.8C38.4233 105.762 38.3616 105.724 38.3088 105.691C38.2234 105.638 38.1614 105.6 38.0996 105.6C37.9996 105.6 37.8996 105.4 37.8996 105.3V104.9C37.8996 104.8 38.0996 104.7 38.0996 104.7H38.5996C38.6996 104.8 38.7996 104.9 38.8996 104.9C38.9996 104.9 38.9996 105.1 38.9996 105.4H40.9996C41.0663 105.2 41.0441 105 41.0218 104.8C41.0107 104.7 40.9996 104.6 40.9996 104.5C40.8996 104.2 40.7996 103.9 40.5996 103.7L39.9996 103.1C39.7996 102.9 39.4996 102.7 39.1996 102.7C38.8996 102.6 38.5996 102.6 38.2996 102.6C38.1496 102.6 37.9996 102.625 37.8496 102.65C37.6997 102.675 37.5496 102.7 37.3996 102.7C37.0996 102.8 36.7996 102.9 36.5996 103.1C36.3996 103.3 36.1996 103.5 35.9996 103.8C35.9663 103.9 35.9218 104 35.8774 104.1C35.7885 104.3 35.6996 104.5 35.6996 104.7V105.6C35.7996 105.9 35.8996 106.2 36.0996 106.5C36.2996 106.8 36.4996 107 36.7996 107.2C36.9996 107.4 37.1996 107.5 37.3996 107.6C37.4663 107.633 37.533 107.678 37.5996 107.722C37.733 107.811 37.8663 107.9 37.9996 107.9C38.0996 108 38.2996 108 38.2996 108C38.3996 108.1 38.5996 108.1 38.5996 108.1C38.7996 108.2 38.8996 108.3 38.8996 108.3C38.9996 108.4 38.9996 108.5 38.9996 108.5V109.3L38.7996 109.5C38.6996 109.7 38.5996 109.7 38.4996 109.7H37.9996C37.7996 109.7 37.5996 109.6 37.4996 109.5C37.4663 109.467 37.4218 109.433 37.3774 109.4C37.2885 109.333 37.1996 109.267 37.1996 109.2C37.0996 109.1 37.0996 108.9 37.0996 108.5H35.0996C35.0996 109 35.1996 109.5 35.3996 110C35.5996 110.5 35.8996 110.9 36.2996 111.2C36.362 111.242 36.42 111.283 36.4756 111.323C36.6868 111.474 36.8622 111.6 37.0996 111.6Z" fill="white"/>
<path fill-rule="evenodd" clip-rule="evenodd" d="M33.4996 106.1C33.8996 106.4 34.1996 106.7 34.3996 107.1C34.5996 107.5 34.6996 107.9 34.7996 108.4C34.7996 108.8 34.7996 109.2 34.5996 109.6C34.3996 110 34.1996 110.3 33.8996 110.6C33.5996 110.9 33.2996 111.1 32.7996 111.3C32.3996 111.5 31.9996 111.6 31.4996 111.6H28.8996L28.5996 102.9H31.9996C32.2996 103 32.5995 103.2 32.8995 103.4C33.1995 103.6 33.3996 103.9 33.4996 104.1C33.5996 104.4 33.6996 104.7 33.6996 105C33.6996 105.4 33.6996 105.8 33.3996 106.1H33.4996ZM30.7996 104.7V105.5H31.1996C31.3996 105.5 31.5996 105.5 31.6996 105.3C31.7496 105.2 31.7996 105.15 31.8371 105.112C31.8746 105.075 31.8996 105.05 31.8996 105C31.8996 105 31.8996 104.8 31.6996 104.7C31.6582 104.7 31.5997 104.683 31.5311 104.663C31.434 104.634 31.3168 104.6 31.1996 104.6H30.8996L30.7996 104.7ZM31.4996 109.5H31.9996C32.1996 109.5 32.2996 109.4 32.3996 109.3C32.4663 109.3 32.5329 109.211 32.5996 109.122C32.6329 109.078 32.6663 109.033 32.6996 109V108.6C32.6996 108.5 32.6996 108.3 32.5996 108.2C32.5996 108.133 32.5107 108.067 32.4218 108C32.3774 107.967 32.3329 107.933 32.2996 107.9C32.2496 107.85 32.1746 107.825 32.0996 107.8C32.0246 107.775 31.9496 107.75 31.8996 107.7H30.8996V109.7H31.4996V109.5Z" fill="white"/>
<path d="M23.3002 106.9L23.1002 105.6H23.0002L26.6002 105L26.3002 103L20.7002 103.9L22.1002 112.6L27.7002 111.7L27.4002 109.7L23.8002 110.3L23.6002 108.9L26.5002 108.4L26.2002 106.4L23.3002 106.9Z" fill="white"/>
<path d="M16.9004 104.7L18.9004 104L19.3004 113.2L17.4004 113.9L14.9004 110.1L15.4004 114.6L13.5004 115.3L7.90039 107.9L9.90039 107.2L13.0004 111.3L12.5004 106.3L14.4004 105.7L17.2004 109.9L17.0004 104.8L16.9004 104.7Z" fill="white"/>
<path d="M2.09961 115.2L1.39961 114.1L4.49961 112.2L3.39961 110.5L-1.40039 113.5L3.29961 120.9L8.09961 117.9L6.99961 116.2L3.89961 118.1L3.19961 116.9L5.69961 115.3L4.59961 113.6L2.09961 115.2Z" fill="white"/>
<path d="M-1.7002 116.1L-3.00019 117.2L1.3998 122.4L-0.200195 123.7L-4.60019 118.5L-5.9002 119.6L-7.2002 118L-3.00019 114.5L-1.7002 116.1Z" fill="white"/>
<path d="M-3.20039 126.6L-1.80039 125.2L-8.00039 118.9L-9.40039 120.3L-3.20039 126.6Z" fill="white"/>
<path d="M-5.50039 129.4L-6.10039 130C-6.30039 130.2 -6.60039 130.3 -6.90039 130.4C-7.40039 130.6 -7.90039 130.6 -8.40039 130.4C-8.90039 130.4 -9.30039 130.1 -9.80039 129.7L-8.50039 128.1C-8.30039 128.3 -8.10039 128.3 -8.00039 128.3H-7.60039C-7.40039 128.3 -7.30039 128.2 -7.20039 128C-7.1623 127.924 -7.12422 127.862 -7.09166 127.809C-7.03887 127.724 -7.00039 127.662 -7.00039 127.6V127C-7.00039 126.957 -7.00039 126.933 -7.00806 126.911C-7.01845 126.882 -7.04289 126.857 -7.10039 126.8L-7.20039 126.7H-8.10039C-8.10039 126.7 -8.30039 126.7 -8.40039 126.8C-8.45039 126.85 -8.50039 126.875 -8.55039 126.9C-8.60039 126.925 -8.65039 126.95 -8.70039 127L-9.30039 127.3C-9.50039 127.4 -9.70039 127.5 -10.0004 127.6C-10.3004 127.7 -10.6004 127.7 -11.0004 127.7C-11.3004 127.7 -11.6004 127.7 -11.9004 127.5C-12.1108 127.43 -12.272 127.31 -12.453 127.176L-12.4548 127.175C-12.5314 127.118 -12.6115 127.059 -12.7004 127C-12.9004 126.8 -13.1004 126.5 -13.2004 126.2C-13.3004 125.9 -13.4004 125.6 -13.4004 125.3V124.4C-13.4004 124.163 -13.2752 123.988 -13.1238 123.776C-13.0839 123.721 -13.0421 123.663 -13.0004 123.6C-12.9372 123.537 -12.8741 123.464 -12.8078 123.387C-12.6642 123.221 -12.5054 123.037 -12.3004 122.9C-12.1004 122.7 -11.8004 122.6 -11.5004 122.5C-11.3352 122.5 -11.1701 122.47 -11.0216 122.442C-10.9004 122.42 -10.7903 122.4 -10.7004 122.4C-10.4004 122.4 -10.1004 122.4 -9.90039 122.6C-9.60039 122.6 -9.40039 122.8 -9.20039 123L-10.5004 124.6C-10.6004 124.5 -10.8004 124.4 -10.9004 124.5C-11.0004 124.5 -11.1004 124.5 -11.2004 124.6L-11.3004 124.8V125.3C-11.3004 125.367 -11.2115 125.433 -11.1226 125.5C-11.0782 125.533 -11.0337 125.567 -11.0004 125.6C-10.9307 125.67 -10.8123 125.642 -10.7132 125.619C-10.6701 125.609 -10.6307 125.6 -10.6004 125.6C-10.5386 125.6 -10.4768 125.562 -10.3914 125.509C-10.3386 125.476 -10.2768 125.438 -10.2004 125.4C-10.1504 125.4 -10.0754 125.35 -10.0004 125.3C-9.92539 125.25 -9.85039 125.2 -9.80039 125.2C-9.75897 125.2 -9.71755 125.166 -9.66902 125.125C-9.60039 125.069 -9.51755 125 -9.40039 125C-9.35039 125 -9.27539 124.95 -9.20039 124.9C-9.12539 124.85 -9.05039 124.8 -9.00039 124.8C-8.50039 124.5 -7.90039 124.5 -7.40039 124.5C-6.90039 124.5 -6.40039 124.8 -5.90039 125.1C-5.50039 125.5 -5.20039 125.9 -5.00039 126.4C-4.80039 126.9 -4.80039 127.5 -5.00039 128C-5.00039 128.2 -5.10039 128.4 -5.20039 128.6C-5.30039 128.8 -5.40039 129 -5.60039 129.1L-5.50039 129.4Z" fill="white"/>
<path fill-rule="evenodd" clip-rule="evenodd" d="M-12.7247 129.864C-12.3386 129.688 -11.8754 129.606 -11.5002 129.7C-11.1002 129.7 -10.6002 129.9 -10.2002 130.1C-9.90236 130.249 -9.71541 130.453 -9.5155 130.672C-9.44692 130.747 -9.37682 130.823 -9.30019 130.9C-9.10019 131.2 -8.90019 131.6 -8.90019 132V133.3C-8.90019 133.7 -9.10019 134.1 -9.40019 134.5L-10.7002 136.7L-18.2002 132.1L-17.0002 130.1C-16.8002 129.8 -16.6002 129.5 -16.3002 129.3C-16.0002 129.1 -15.7002 128.9 -15.4002 128.8C-15.304 128.8 -15.2078 128.79 -15.1083 128.779H-15.1072C-14.8967 128.756 -14.6715 128.732 -14.4002 128.8C-14.1002 128.8 -13.8002 128.9 -13.5002 129.1C-13.2122 129.292 -12.9242 129.576 -12.7247 129.864ZM-14.8002 131.8L-15.5002 131.4V131.3L-15.3002 131C-15.2002 130.9 -15.0002 130.7 -14.9002 130.7H-14.6002C-14.5002 130.8 -14.5002 130.9 -14.5002 131C-14.5002 131.1 -14.5252 131.175 -14.5502 131.25C-14.5752 131.325 -14.6002 131.4 -14.6002 131.5L-14.8002 131.8ZM-11.0002 133.15C-11.0502 133.225 -11.1002 133.3 -11.1002 133.4V133.3L-11.4002 133.8L-13.1002 132.8L-12.9002 132.5H-12.8002V132.3C-12.7002 132.1 -12.6002 132 -12.5002 131.9C-12.4002 131.7 -12.2002 131.6 -12.1002 131.6H-11.7002C-11.5002 131.7 -11.4002 131.7 -11.3002 131.7C-11.1002 131.8 -11.0002 131.9 -11.0002 132C-10.9002 132.1 -10.9002 132.2 -10.9002 132.4V132.9C-10.9002 133 -10.9502 133.075 -11.0002 133.15Z" fill="white"/>
<path d="M-13.3004 143L-16.2342 141.805L-14.4998 145.9L-16.0998 147.2L-19.7998 144.5L-17.7998 148.6L-19.3998 149.9L-27.2998 144.9L-25.5998 143.6L-21.1998 146.4L-23.3998 141.9L-21.8998 140.6L-17.7998 143.6L-19.0523 140.657L-21.4004 139.7L-19.3004 134.5L-17.4004 135.3L-18.3481 137.602L-18.0998 137.4L-17.5432 138.714L-16.6004 136.4L-14.7004 137.2L-15.8004 139.9L-14.5004 140.4L-13.1004 137L-11.2004 137.8L-13.3004 143Z" fill="white"/>
<path d="M43.5 112.3L41.5 112L42.7 103.3L44.7 103.6L43.5 112.3Z" fill="white"/>
<path d="M49.0004 106.4L50.7004 106.7V106.8L51.1004 104.8L45.8004 103.7L45.4004 105.7L47.0004 106L45.6004 112.7L47.6004 113.1L49.0004 106.4Z" fill="white"/>
<path d="M53.5 108.9L53.8838 107.653L57.2 108.6L57.8 106.6L52.4 105.1L50 113.6L55.4 115.2L56 113.2L52.5 112.2L52.9 110.9L55.7 111.7L56.3 109.7L53.5 108.9Z" fill="white"/>
<path d="M72.6996 112.2L70.6996 111.4L67.4996 115.4L68.0996 110.4L66.2996 109.6L63.3996 113.7L63.6996 108.5L61.6996 107.7L61.0996 117L62.9996 117.8L65.5996 114.1L64.9996 118.6L66.8996 119.4L72.6996 112.2Z" fill="white"/>
<path d="M73.4996 116.3L73.9494 115.221L77.2996 116.6L78.0996 114.7L72.8996 112.6L69.5996 120.7L74.7996 122.8L75.5996 120.9L72.1996 119.5L72.6996 118.2L75.3996 119.3L76.1996 117.4L73.4996 116.3Z" fill="white"/>
<path fill-rule="evenodd" clip-rule="evenodd" d="M82.8 121.2C82.7 120.7 82.6 120.3 82.3 119.9H82.4C82.7 119.7 83 119.4 83.1 119C83.2 118.6 83.2 118.3 83.2 118C83.1667 117.9 83.1444 117.8 83.1222 117.7C83.0778 117.5 83.0333 117.3 82.9 117.1C82.8 116.8 82.6 116.6 82.3 116.3C82 116 81.7 115.8 81.4 115.7L79.2 114.9L76 123.2L78.4 124.1C78.8 124.3 79.3 124.3 79.7 124.3C80.1 124.3 80.4999 124.2 80.8999 124.1C81.2999 124 81.6 123.8 81.9 123.5C82.0548 123.345 82.2096 123.19 82.337 123.022C82.2998 123.381 82.2998 123.741 82.2998 124.1C82.3998 124.5 82.5998 125 82.8998 125.4L83.4998 126C83.5624 126.042 83.6206 126.084 83.6763 126.123C83.8875 126.275 84.0624 126.4 84.2998 126.4V126.7C84.4998 126.8 84.6998 126.8 84.8998 126.8H85.5998C86.1998 126.7 86.6998 126.5 87.0998 126.2C87.4998 125.9 87.7998 125.4 87.9998 124.9C88.0998 124.4 88.0998 123.8 87.9998 123.3C87.8998 122.8 87.5998 122.3 87.1998 121.9C87.1665 121.867 87.1331 121.822 87.0998 121.778C87.0331 121.689 86.9665 121.6 86.8998 121.6C86.8665 121.567 86.8331 121.522 86.7998 121.478C86.7331 121.389 86.6665 121.3 86.5998 121.3C86.4998 121.25 86.4248 121.175 86.3623 121.113C86.2998 121.05 86.2498 121 86.1998 121L85.8998 120.7C85.7998 120.6 85.7998 120.4 85.7998 120.3C85.7998 120.1 85.8998 120 85.9998 119.9C86.0998 119.8 86.2998 119.8 86.2998 119.8H86.7998C86.7998 119.8 86.9998 119.9 86.9998 120V120.4L88.8998 121C88.9998 120.7 88.9998 120.4 88.9998 120.1C88.9998 119.863 88.9372 119.688 88.8615 119.477C88.8491 119.442 88.8362 119.406 88.8232 119.369C88.8154 119.346 88.8076 119.324 88.7998 119.3C88.7763 119.253 88.7527 119.2 88.7279 119.145C88.6472 118.964 88.5526 118.753 88.3998 118.6C88.1998 118.4 87.9998 118.2 87.6998 118C87.4998 117.8 87.1998 117.6 86.8998 117.6H85.9998C85.6998 117.6 85.3998 117.7 85.1998 117.8C84.9998 117.9 84.6998 118.1 84.4998 118.3C84.1998 118.5 83.9998 118.8 83.8998 119.1C83.6998 119.4 83.6998 119.7 83.6998 120C83.6998 120.15 83.7248 120.3 83.7498 120.45C83.7748 120.6 83.7998 120.75 83.7998 120.9C83.877 121.209 84.0138 121.398 84.1642 121.607L84.1649 121.608C84.2091 121.669 84.2544 121.732 84.2998 121.8C84.3707 121.871 84.4289 121.942 84.4836 122.008C84.5832 122.129 84.6707 122.236 84.7998 122.3C84.8998 122.35 84.9748 122.425 85.0498 122.5C85.1248 122.575 85.1998 122.65 85.2998 122.7C85.3998 122.8 85.5998 122.9 85.5998 122.9L85.7998 123.1C85.8998 123.2 85.9998 123.4 85.9998 123.4V124.1C85.8998 124.2 85.8998 124.3 85.8998 124.3C85.8998 124.4 85.6998 124.4 85.6998 124.4H84.8998C84.6998 124.3 84.5998 124.2 84.4998 124.1C84.3998 124.1 84.2998 124 84.2998 123.8V123.2L82.5524 122.648C82.5712 122.6 82.5872 122.551 82.6 122.5C82.8 122.1 82.8 121.6 82.8 121.2ZM79.35 122.25C79.275 122.225 79.2 122.2 79.1 122.2L78.6 122C78.6 122 79.3 120.2 79.3 120.3H79.8C79.85 120.35 79.925 120.4 80 120.45C80.075 120.5 80.15 120.55 80.2 120.6C80.25 120.7 80.325 120.775 80.3875 120.837C80.45 120.9 80.5 120.95 80.5 121C80.7 121.1 80.7 121.3 80.7 121.4V121.8C80.7 121.9 80.6 122.1 80.5 122.1C80.4 122.3 80.2 122.3 80.1 122.3H79.6C79.5 122.3 79.425 122.275 79.35 122.25ZM80 118.3L80.3 117.5L80.4 117.7H80.7C80.9 117.8 81.1 117.9 81.1 118V118.3C81 118.4 80.9 118.5 80.8 118.5C80.7 118.5 80.5 118.5 80.3 118.3H80Z" fill="white"/>
<path d="M87.7998 127.3L89.6998 127.9L92.1998 119.4L90.2998 118.8L87.7998 127.3Z" fill="white"/>
<path d="M96.9998 122.7L95.3998 122.3L93.7998 128.9L91.7998 128.4L93.3998 121.8L91.7998 121.4L92.2998 119.4L97.5998 120.7L97.5722 120.81L103.1 121.6L102.8 123.6L99.2002 123.1L99.0002 124.4L101.9 124.8L101.6 126.8L98.7002 126.4L98.5002 127.8L102.1 128.3L101.8 130.3L96.2002 129.5L97.3894 121.541L97.0998 122.7H96.9998Z" fill="white"/>
<path d="M115.621 123.842L116.7 130.1L122.3 129.2L122 127.2L118.4 127.8L118.2 126.4L121.1 125.9L120.8 123.9L117.9 124.4L117.7 123.1H117.5L121.1 122.5L120.8 120.5L115.2 121.4L115.217 121.5H114.1L112.9 126.4L111.4 121.7H109.4L108.5 126.7L106.6 122H104.5L107.8 130.6H109.8L110.6 126.1L112 130.4H114L115.621 123.842Z" fill="white"/>
<path fill-rule="evenodd" clip-rule="evenodd" d="M128 123.3C127.701 122.901 127.302 122.701 126.903 122.501C126.906 122.436 126.913 122.366 126.92 122.293C126.943 122.051 126.969 121.775 126.9 121.5C126.9 121.1 126.7 120.8 126.5 120.6C126.35 120.5 126.225 120.4 126.1 120.3C125.975 120.2 125.85 120.1 125.7 120C125.4 119.8 125 119.7 124.7 119.7C124.437 119.634 124.217 119.655 123.984 119.677C123.863 119.688 123.737 119.7 123.6 119.7L121.3 120.3L123.5 128.9L126 128.3C126.133 128.233 126.266 128.178 126.4 128.122C126.666 128.011 126.933 127.9 127.2 127.7C127.6 127.4 127.9 127.1 128.1 126.8C128.4 126.5 128.6 126.1 128.6 125.7C128.648 125.507 128.673 125.315 128.675 125.122C128.829 125.468 129.013 125.785 129.3 126C129.7 126.3 130.1 126.6 130.6 126.7H131.5C131.562 126.679 131.62 126.658 131.676 126.638C131.887 126.563 132.062 126.5 132.3 126.5L132.1 126.7L132.7 126.4C132.9 126.3 133 126.2 133.2 126C133.6 125.6 133.9 125.1 134 124.6C134.2 124.1 134.2 123.5 134 123C133.8 122.5 133.5 122 133.1 121.7C132.7 121.4 132.2 121.1 131.6 121.1H129.8C129.7 121.1 129.5 121 129.5 120.9V120.5C129.55 120.45 129.55 120.4 129.55 120.35C129.55 120.3 129.55 120.25 129.6 120.2C129.7 120.1 129.8 120.1 129.8 120.1H130.4C130.5 120.1 130.7 120.2 130.7 120.4L132.6 119.7C132.5 119.4 132.4 119.1 132.2 118.9C132.1 118.6 131.8 118.4 131.6 118.3C131.487 118.262 131.388 118.211 131.293 118.161C131.135 118.078 130.987 118 130.8 118H129.9C129.6 118 129.3 118.1 129 118.2C128.8 118.3 128.5 118.5 128.3 118.7C128.1 118.9 127.9 119.1 127.8 119.4C127.6 119.6 127.5 119.9 127.5 120.2C127.5 120.342 127.487 120.458 127.475 120.568C127.454 120.767 127.435 120.942 127.5 121.2C127.6 121.6 127.7 121.8 127.9 122.1C128.1 122.4 128.3 122.6 128.6 122.8C128.9 123 129.2 123.2 129.5 123.2H131.8C131.9 123.2 132 123.3 132 123.3C132.1 123.4 132.1 123.4 132.1 123.5V124.2C132.1 124.3 131.9 124.5 131.9 124.5C131.8 124.6 131.7 124.7 131.5 124.7H131C131 124.6 130.8 124.5 130.7 124.5C130.6 124.4 130.4 124.2 130.4 124L128.633 124.651C128.623 124.601 128.612 124.55 128.6 124.5C128.5 124 128.3 123.6 128 123.3ZM123.9 121.7L124.1 122.5H124.4C124.6 122.4 124.7 122.3 124.8 122.2C124.8 122.15 124.825 122.1 124.85 122.05C124.875 122 124.9 121.95 124.9 121.9L124.7 121.7H123.9ZM125.7 126.2C125.846 126.2 125.939 126.146 126.057 126.078C126.078 126.066 126.101 126.053 126.124 126.04C126.148 126.027 126.173 126.013 126.2 126C126.3 126 126.5 125.8 126.6 125.7C126.6 125.659 126.634 125.617 126.674 125.569C126.731 125.5 126.8 125.417 126.8 125.3V124.9C126.8 124.8 126.8 124.7 126.6 124.6C126.523 124.562 126.476 124.524 126.436 124.491C126.371 124.438 126.323 124.4 126.2 124.4H124.7L125.2 126.4H125.7V126.2Z" fill="white"/>
<path d="M137.5 124.4L135.6 125.2L132.3 117L134.2 116.2L137.5 124.4Z" fill="white"/>
<path d="M138.5 116.4L140 115.7H140.1L139.2 113.9L134.3 116.2L135.2 118L136.7 117.3L139.6 123.5L141.4 122.6L138.5 116.4Z" fill="white"/>
<path d="M142 114.6L142.7 115.7L145.3 114.2L146.3 116L143.7 117.5L144.4 118.7L147.6 116.9L148.6 118.7L143.7 121.5L139.4 113.9L144.3 111.1L145.3 112.9L142.1 114.7L142 114.6Z" fill="white"/>
<path d="M276.497 22.3189L276.3 23.6L279.2 24.1L278.8 26.1L275.9 25.6L275.6 27L279.2 27.7L278.8 29.7L273.2 28.7L274.8 20L280.4 21L280 23L276.497 22.3189Z" fill="white"/>
<path fill-rule="evenodd" clip-rule="evenodd" d="M286.6 27.1C286.515 26.7584 286.356 26.4167 286.125 26.0751C286.417 25.7833 286.7 25.4889 286.7 25.1V24.1C286.6 23.8 286.5 23.5 286.3 23.2C286.1 22.9 285.9 22.7 285.6 22.5C285.3 22.3 285 22.1 284.6 22.1L282.3 21.5L280.2 30.1L282.7 30.7H284C284.4 30.6 284.8 30.5 285.2 30.3C285.5 30.1 285.8 29.8 286.1 29.5C286.12 29.4709 286.14 29.4408 286.161 29.4099C286.356 29.1223 286.6 28.7612 286.6 28.4C286.7 28 286.7 27.5 286.6 27.1ZM283.1 28.5H283.6C283.8 28.5 283.9 28.5 284.1 28.4C284.2 28.4 284.4 28.3 284.5 28.2C284.6 28.1 284.7 28 284.7 27.9V27.5C284.7 27.4 284.6 27.2 284.5 27.1C284.5 27 284.3 26.9 284.1 26.8C284.059 26.8 284 26.7657 283.932 26.7255C283.835 26.6686 283.717 26.6 283.6 26.6H283.1L282.6 28.4H283.1V28.5ZM283.5 24.5H283.8C284 24.6 284.2 24.6 284.3 24.5C284.4 24.5 284.5 24.4 284.5 24.3C284.5 24.3 284.5 24.1 284.4 24C284.4 23.9 284.2 23.8 284 23.7H283.7L283.5 24.5Z" fill="white"/>
<path d="M288.207 32.1396C288.365 32.2224 288.513 32.3001 288.7 32.3001L288.9 32.7001C289.1 32.8001 289.3 32.8001 289.5 32.8001H290.2C290.8 32.7001 291.3 32.5001 291.7 32.1001C292.1 31.8001 292.4 31.3001 292.6 30.8001C292.7 30.3001 292.8 29.8001 292.6 29.2001C292.4 28.6001 292.1 28.2001 291.7 27.8001C291.6 27.7501 291.525 27.6751 291.462 27.6126C291.4 27.5501 291.35 27.5001 291.3 27.5001C291.183 27.5001 291.1 27.4315 291.031 27.3746C290.983 27.3344 290.941 27.3001 290.9 27.3001C290.8 27.2501 290.725 27.1751 290.662 27.1126C290.6 27.0501 290.55 27.0001 290.5 27.0001L290.2 26.7001C290.1 26.6001 290.1 26.4001 290.1 26.3001C290.138 26.2237 290.176 26.1619 290.209 26.1091C290.261 26.0237 290.3 25.9619 290.3 25.9001C290.3 25.7001 290.5 25.7001 290.5 25.7001H291C291.1 25.7001 291.3 25.8001 291.3 25.9001V26.3001L293.2 26.9001C293.3 26.6002 293.3 26.3003 293.3 26.0004C293.3 25.7004 293.3 25.4001 293.1 25.2001C293 25.1002 292.925 24.9753 292.85 24.8504C292.775 24.7254 292.7 24.6001 292.6 24.5001C292.43 24.2449 292.259 24.1344 292.028 23.9839C291.987 23.9576 291.944 23.9299 291.9 23.9001C291.8 23.8668 291.7 23.8223 291.6 23.7779C291.4 23.689 291.2 23.6001 291 23.6001H290.1C289.8 23.6001 289.5 23.7001 289.3 23.8001C289.1 23.9001 288.8 24.1001 288.6 24.3001C288.4 24.5001 288.2 24.8001 288.1 25.1001C287.9 25.4001 287.9 25.7001 287.9 26.0001C287.9 26.2999 288 26.5997 288.1 26.8996C288.2 27.1996 288.4 27.5001 288.6 27.7001C288.7 27.9001 288.9 28.1001 289.1 28.2001C289.2 28.4001 289.4 28.5001 289.6 28.6001C289.7 28.7001 289.9 28.8001 289.9 28.8001C289.9 28.9001 290.1 29.0001 290.1 29.0001C290.2 29.1001 290.3 29.3001 290.3 29.3001V29.9001C290.3 29.9001 290.4 29.9001 290.3 30.0001C290.2 30.1001 290.2 30.2001 290.2 30.2001C290.2 30.4001 290 30.4001 290 30.4001H289.2C289 30.3001 288.9 30.2001 288.8 30.1001C288.7 30.1001 288.6 30.0001 288.6 29.8001V29.2001L286.7 28.6001C286.7 28.7668 286.689 28.9334 286.677 29.1001C286.655 29.4334 286.633 29.7668 286.7 30.1001C286.8 30.6001 287 31.0001 287.3 31.4001C287.366 31.6001 287.522 31.7112 287.677 31.8223C287.755 31.8779 287.833 31.9334 287.9 32.0001C288.013 32.0378 288.111 32.0896 288.207 32.1396Z" fill="white"/>
<path d="M294.1 33.8999L292.2 33.2999L295 24.8999L296.9 25.4999L294.1 33.8999Z" fill="white"/>
<path d="M300.4 28.8001L302 29.4001V29.3001L302.7 27.4001L297.6 25.6001L296.9 27.5001L298.5 28.1001L296.2 34.5001L298.1 35.2001L300.4 28.8001Z" fill="white"/>
<path d="M304.8 30.5999L304.3 31.7999L307 32.8999L306.3 34.7999L303.6 33.6999L303.1 34.9999L306.5 36.2999L305.8 38.1999L300.5 36.0999L303.7 27.8999L309 29.9999L308.3 31.8999L304.9 30.5999H304.8Z" fill="white"/>
<path d="M322.8 35.6001L320.8 34.8001H320.7L317.5 38.8001L318.2 33.8001L316.4 33.0001L313.5 37.1001L313.9 31.9001L311.9 31.1001L311.2 40.4001L313.1 41.2001L315.7 37.5001L315.1 42.0001L317 42.8001L322.682 35.747L319.6 43.9L324.9 45.9L325.6 44L322.2 42.7L322.7 41.4L325.5 42.4L326.2 40.5L323.4 39.5L323.9 38.2999L327.3 39.5999L328 37.7L322.715 35.7058L322.8 35.6001Z" fill="white"/>
<path fill-rule="evenodd" clip-rule="evenodd" d="M332.6 45.2999C332.7 44.8999 332.7 44.3999 332.7 43.9999C332.7 43.5999 332.5 43.1999 332.2 42.7999H332.3C332.6 42.4999 332.8 42.1999 332.9 41.7999V40.7999C332.9 40.4999 332.8 40.1999 332.6 39.8999C332.4 39.5999 332.2 39.2999 331.9 39.0999C331.7 38.8999 331.3 38.6999 331 38.5999L328.8 37.8999L326 46.2999L328.5 47.0999C328.9 47.2999 329.4 47.2999 329.8 47.2999C330.2 47.2999 330.6 47.1999 331 46.9999C331.4 46.7999 331.7 46.5999 332 46.2999C332.134 46.1657 332.248 46.0314 332.343 45.8882C332.307 46.2588 332.326 46.6294 332.4 47C332.5 47.5 332.8 47.8999 333.1 48.2999C333.3 48.5 333.5 48.7 333.8 48.7999C333.913 48.8376 334.012 48.8894 334.107 48.9394C334.265 49.0222 334.413 49.0999 334.6 49.0999L334.9 49.4H336.2C336.8 49.3 337.3 49.1 337.7 48.7C338.1 48.2999 338.4 47.7999 338.5 47.2999C338.7 46.7999 338.7 46.2 338.5 45.7C338.4 45.2 338 44.8 337.6 44.4C337.5 44.3499 337.425 44.2749 337.363 44.2124C337.3 44.1499 337.25 44.0999 337.2 44.0999C337.083 44.0999 337 44.0313 336.932 43.9745C336.883 43.9343 336.842 43.9 336.8 43.9C336.6 43.8 336.5 43.6999 336.4 43.5999L336.1 43.2999C336 43.2 336 43 336 42.9C336 42.7828 336.035 42.7 336.063 42.6313C336.083 42.5828 336.1 42.5414 336.1 42.5C336.1 42.2999 336.3 42.2999 336.3 42.2999H336.8C336.9 42.2999 337.1 42.5 337.1 42.5V42.9L339.1 43.4V42.5C339.1 42.2626 339.038 42.0879 338.962 41.8767C338.942 41.8211 338.921 41.7625 338.9 41.7C338.8 41.5 338.6 41.2 338.4 41C338.2 40.7999 338 40.5999 337.7 40.5C337.6 40.4666 337.5 40.4222 337.4 40.3777C337.2 40.2888 337 40.2 336.8 40.2H335.9C335.75 40.25 335.625 40.3 335.5 40.35C335.375 40.4 335.25 40.45 335.1 40.5C334.8 40.5999 334.6 40.7999 334.4 41C334.2 41.2 334 41.5 333.9 41.7999C333.7 42.0999 333.7 42.4 333.7 42.7C333.7 43 333.8 43.2999 333.9 43.5999C334 43.8999 334.2 44.2 334.4 44.4C334.5 44.6 334.7 44.8 334.9 44.9C335 45.1 335.2 45.2 335.4 45.2999C335.5 45.3999 335.7 45.5 335.7 45.5C335.7 45.5999 335.9 45.7 335.9 45.7C336 45.7999 336.1 46 336.1 46V46.7C336 46.7999 336 46.9 336 46.9C336 47 335.8 47.0999 335.8 47.0999C335.7 47.1999 335.6 47.2 335.5 47.2H335C334.95 47.15 334.875 47.1 334.8 47.05C334.725 47 334.65 46.95 334.6 46.9C334.5 46.9 334.4 46.7999 334.4 46.5999V46L332.527 45.5316C332.555 45.4579 332.58 45.381 332.6 45.2999ZM329.1 45.1999V45.3999L328.6 45.1999L329.2 43.3999H329.7C329.9 43.3999 330.1 43.4999 330.2 43.5999C330.233 43.6332 330.278 43.6666 330.322 43.6999C330.411 43.7666 330.5 43.8332 330.5 43.8999C330.7 43.9999 330.7 44.1999 330.7 44.2999V44.6999C330.7 44.7999 330.6 44.9999 330.5 44.9999C330.4 45.0999 330.2 45.1999 330.1 45.1999H329.1ZM329.8 41.2999L330.1 40.4999L330.2 40.5999H330.5C330.7 40.6999 330.9 40.7999 330.9 40.8999V41.1999C330.8 41.2999 330.7 41.3999 330.6 41.3999C330.5 41.4999 330.3 41.4999 330.1 41.2999H329.8Z" fill="white"/>
<path d="M338.1 49.7999L340.1 50.2L341.548 43.2791L341.5 43.6001L343.2 43.8001L342.2 50.5001L344.2 50.8001L345.2 44.1001L346.816 44.2903L346.8 44.4001L346.9 44.3001L346.816 44.2903L346.977 43.223L346.8 51L352.5 51.2V49.2H348.9V47.7999H351.9V45.7999H349V44.5L349.1 44.4H352.7V42.2H347L346.996 42.3843L341.897 41.6147L341.9 41.5999L339.9 41.2L338.1 49.7999Z" fill="white"/>
</g>
<defs>
<clipPath id="clip0_292_373">
<rect width="300" height="156" fill="white"/>
</clipPath>
</defs>
</svg>
