<svg width="41" height="41" viewBox="0 0 41 41" fill="none" xmlns="http://www.w3.org/2000/svg">
<path d="M35.1208 19.2409C28.0492 18.5457 22.4541 12.9505 21.7589 5.87861L21.2476 0.677783C21.1588 -0.225934 19.8411 -0.225925 19.7523 0.677793L19.2411 5.87841C18.546 12.9503 12.9509 18.5457 5.87919 19.2409L0.677764 19.7523C-0.225921 19.8411 -0.225921 21.1588 0.677764 21.2476L5.87937 21.759C12.951 22.4542 18.546 28.0495 19.2411 35.1213L19.7523 40.3222C19.8411 41.2259 21.1588 41.2259 21.2476 40.3222L21.7589 35.1212C22.4541 28.0494 28.0492 22.4542 35.1208 21.759L40.3222 21.2476C41.2259 21.1588 41.2259 19.8411 40.3222 19.7523L35.1208 19.2409Z" fill="#272729"/>
</svg>
