<svg width="82" height="82" viewBox="0 0 82 82" fill="none" xmlns="http://www.w3.org/2000/svg">
<path d="M49.2969 1.00601C27.3138 -3.69587 5.60413 10.3604 0.972964 32.385C-3.63107 54.2807 10.3783 75.931 32.3969 80.5651C54.3163 85.178 75.9248 71.1619 80.5635 49.1339C85.1692 27.2043 71.1343 5.67693 49.2969 1.00601Z" fill="#CDB7E0"/>
<path d="M11.0502 37.9992C11.0696 37.8311 10.8934 37.7024 10.7259 37.7268C10.506 37.7587 10.2972 37.7892 10.1049 37.8627C9.58682 38.0605 9.09168 38.0622 8.61386 37.7939C7.84623 37.363 7.79142 36.5448 8.52952 36.0888C8.91318 35.8518 9.36501 35.6765 9.80861 35.5933C11.5744 35.2622 13.2984 35.4464 14.9502 36.1688C15.2316 36.2919 15.4943 36.4756 15.7351 36.6693C16.0284 36.905 16.2035 37.2318 16.0459 37.6056C15.8731 38.015 15.6094 38.4058 15.1013 38.3787C14.645 38.3543 14.1941 38.2297 13.7412 38.1472C13.4646 38.0967 13.2046 38.2932 13.1891 38.574C13.1355 39.5446 13.0592 40.4911 13.0826 41.4353C13.2989 50.1511 16.975 57.1427 23.7416 62.5507C26.3961 64.6723 29.3819 66.2039 32.6333 67.1995C40.2097 69.5194 47.5596 68.9642 54.5903 65.2811C60.2944 62.2931 64.4104 57.7863 66.8987 51.8294C67.1295 51.2768 67.3246 50.7092 67.5277 50.114C67.7041 49.5969 67.3904 49.0315 66.8543 48.9268C66.4808 48.8539 66.1007 48.8086 65.7332 48.7138C65.1522 48.5641 64.8574 48.1385 64.8794 47.5397C64.8955 47.1007 65.185 46.8199 65.7787 46.6996C66.7641 46.5002 67.7282 46.6675 68.6779 46.9196C69.7895 47.2147 70.8366 47.6638 71.7279 48.4073C71.9943 48.6296 72.2396 48.9028 72.419 49.1984C72.8119 49.8461 72.5182 50.4763 71.7676 50.6339C71.229 50.7469 70.7457 50.5975 70.3363 50.2266C70.1511 50.0587 69.8574 50.1234 69.7769 50.36C69.627 50.8011 69.4834 51.2254 69.3311 51.6465C67.6375 56.3316 64.8923 60.3023 61.1085 63.529C55.4599 68.3459 48.8774 70.7197 41.471 70.7937C38.2739 70.8256 35.1333 70.3661 32.0857 69.3679C22.9375 66.372 16.436 60.4848 12.8087 51.5444C11.0467 47.2021 10.5105 42.6602 11.0502 37.9992Z" fill="#272729"/>
<path d="M60.3144 28.1711C59.6521 31.039 58.7498 33.9353 57.0717 36.5259C56.705 37.0918 56.2573 37.6091 55.8125 38.1186C55.5834 38.381 55.2958 38.6027 55.0051 38.7988C53.7487 39.6459 52.6074 39.4026 51.8209 38.1111C51.0646 36.8691 50.8484 35.4698 50.7476 34.0559C50.5271 30.963 50.9405 27.9325 51.7249 24.9451C52.3868 22.4245 53.2829 20.0006 54.7318 17.8122C55.2437 17.0389 55.8264 16.3236 56.5934 15.7825C57.9079 14.8551 59.1167 15.1083 59.916 16.503C60.6656 17.8106 60.861 19.2668 60.9544 20.7366C61.1115 23.2071 60.819 25.643 60.3144 28.1711Z" fill="#272729"/>
<path d="M38.474 22.2187C37.7439 25.9468 36.8865 28.7747 35.375 31.3568C34.8727 32.2149 34.2211 32.9945 33.5718 33.7536C33.2734 34.1026 32.8429 34.3691 32.4253 34.5793C31.4913 35.0492 30.6557 34.8431 29.9886 34.0403C29.4359 33.3754 29.1571 32.5815 28.9594 31.7578C28.5107 29.8893 28.5073 27.9934 28.6465 26.0918C28.8098 23.8608 29.2247 21.673 29.8638 19.5328C30.6011 17.0643 31.5287 14.673 33.1495 12.6277C33.5653 12.1029 34.0714 11.6217 34.6163 11.2328C35.7715 10.4079 36.9205 10.6653 37.6911 11.8542C38.2805 12.7633 38.534 13.7918 38.6863 14.8458C39.0837 17.5949 38.8257 20.3161 38.474 22.2187Z" fill="#272729"/>
</svg>
