<svg width="29" height="29" viewBox="0 0 29 29" fill="none" xmlns="http://www.w3.org/2000/svg">
<path d="M24.8415 13.6094C19.8396 13.1177 15.8822 9.16008 15.3904 4.15804L15.0288 0.479407C14.966 -0.159807 14.034 -0.1598 13.9711 0.479415L13.6096 4.1579C13.1179 9.15999 9.1604 13.1177 4.15845 13.6094L0.479394 13.9711C-0.159798 14.034 -0.159798 14.966 0.479394 15.0288L4.15858 15.3905C9.16044 15.8823 13.1179 19.8399 13.6095 24.8419L13.9711 28.5206C14.034 29.1598 14.966 29.1598 15.0288 28.5206L15.3905 24.8418C15.8822 19.8398 19.8397 15.8823 24.8415 15.3905L28.5206 15.0288C29.1598 14.966 29.1598 14.034 28.5206 13.9711L24.8415 13.6094Z" fill="#FFD9FE"/>
</svg>
