<?xml version="1.0" encoding="utf-8"?><svg version="1.1" xmlns="http://www.w3.org/2000/svg" xmlns:xlink="http://www.w3.org/1999/xlink" x="0px" y="0px"
	 viewBox="0 0 935 793"  xml:space="preserve"><style type="text/css">
    text{font-family: 'Outfit', sans-serif;}
	#text{fill:#000;font-size:17px;font-weight:300;}
	#subtext{opacity:0.6;fill:#000;font-size:15px;font-weight:300;}
	#card{fill:#fff;}
	#arrow{fill:#012340;}
	#category{fill:#category;font-weight:500;font-size:17px;}
</style>
<g id="card"><path class="st0" d="M180.5,728.4H10c-5.5,0-10-4.5-10-10v-36.7c0-5.5,4.5-10,10-10h170.5c5.5,0,10,4.5,10,10v36.7
			C190.5,723.9,186,728.4,180.5,728.4z"/><path class="st0" d="M383.6,728.4H213.1c-5.5,0-10-4.5-10-10v-36.7c0-5.5,4.5-10,10-10h170.5c5.5,0,10,4.5,10,10v36.7
			C393.6,723.9,389.1,728.4,383.6,728.4z"/><path class="st0" d="M180.5,139.6H10c-5.5,0-10-4.5-10-10V92.9c0-5.5,4.5-10,10-10h170.5c5.5,0,10,4.5,10,10v36.7
			C190.5,135.1,186,139.6,180.5,139.6z"/><path class="st0" d="M383.6,139.6H213.1c-5.5,0-10-4.5-10-10V92.9c0-5.5,4.5-10,10-10h170.5c5.5,0,10,4.5,10,10v36.7
			C393.6,135.1,389.1,139.6,383.6,139.6z"/><path class="st0" d="M180.5,208.9H10c-5.5,0-10-4.5-10-10v-36.7c0-5.5,4.5-10,10-10h170.5c5.5,0,10,4.5,10,10v36.7
			C190.5,204.4,186,208.9,180.5,208.9z"/><path class="st0" d="M383.6,208.9H213.1c-5.5,0-10-4.5-10-10v-36.7c0-5.5,4.5-10,10-10h170.5c5.5,0,10,4.5,10,10v36.7
			C393.6,204.4,389.1,208.9,383.6,208.9z"/><path class="st0" d="M180.5,397.9H10c-5.5,0-10-4.5-10-10v-36.7c0-5.5,4.5-10,10-10h170.5c5.5,0,10,4.5,10,10v36.7
			C190.5,393.5,186,397.9,180.5,397.9z"/><path class="st0" d="M180.5,328.7H10c-5.5,0-10-4.5-10-10V282c0-5.5,4.5-10,10-10h170.5c5.5,0,10,4.5,10,10v36.7
			C190.5,324.2,186,328.7,180.5,328.7z"/><path class="st0" d="M383.6,328.7H213.1c-5.5,0-10-4.5-10-10V282c0-5.5,4.5-10,10-10h170.5c5.5,0,10,4.5,10,10v36.7
			C393.6,324.2,389.1,328.7,383.6,328.7z"/><path class="st0" d="M383.6,397.9H213.1c-5.5,0-10-4.5-10-10v-36.7c0-5.5,4.5-10,10-10h170.5c5.5,0,10,4.5,10,10v36.7
			C393.6,393.5,389.1,397.9,383.6,397.9z"/><path class="st0" d="M180.5,467.2H10c-5.5,0-10-4.5-10-10v-36.7c0-5.5,4.5-10,10-10h170.5c5.5,0,10,4.5,10,10v36.7
			C190.5,462.7,186,467.2,180.5,467.2z"/><path class="st0" d="M383.6,467.2H213.1c-5.5,0-10-4.5-10-10v-36.7c0-5.5,4.5-10,10-10h170.5c5.5,0,10,4.5,10,10v36.7
			C393.6,462.7,389.1,467.2,383.6,467.2z"/><path class="st0" d="M383.6,605.8H213.1c-5.5,0-10-4.5-10-10v-36.7c0-5.5,4.5-10,10-10h170.5c5.5,0,10,4.5,10,10v36.7
			C393.6,601.3,389.1,605.8,383.6,605.8z"/><path class="st0" d="M180.5,536.5H10c-5.5,0-10-4.5-10-10v-36.7c0-5.5,4.5-10,10-10h170.5c5.5,0,10,4.5,10,10v36.7
			C190.5,532,186,536.5,180.5,536.5z"/><path class="st0" d="M383.6,536.5H213.1c-5.5,0-10-4.5-10-10v-36.7c0-5.5,4.5-10,10-10h170.5c5.5,0,10,4.5,10,10v36.7
			C393.6,532,389.1,536.5,383.6,536.5z"/><path class="st0" d="M180.5,605.8H10c-5.5,0-10-4.5-10-10v-36.7c0-5.5,4.5-10,10-10h170.5c5.5,0,10,4.5,10,10v36.7
			C190.5,601.3,186,605.8,180.5,605.8z"/></g>
<g id="text"><text transform="matrix(1 0 0 1 49.6811 705.6333)">Online form</text><text transform="matrix(1 0 0 1 263.0621 705.6333)">QR code</text><text transform="matrix(1 0 0 1 248.3633 116.7935)">Offline Salon</text><text transform="matrix(1 0 0 1 30.5644 186.0752)">Seminar/Lecture</text><text transform="matrix(1 0 0 1 36.4458 116.7935)">Live broadcast</text><text transform="matrix(1 0 0 1 237.5973 186.0752)">Exhibition/Expo</text><text transform="matrix(1 0 0 1 48.6931 375.1572)">Event name</text><text transform="matrix(1 0 0 1 66.8222 305.8755)">Banner</text>
	<text transform="matrix(1 0 0 1 273.3612 305.8755)">Poster</text>
	<text transform="matrix(1 0 0 1 273.3522 367.6367)">Venue</text>
	<text transform="matrix(1 0 0 1 59.9621 436.9194)">QR code</text>
	<text transform="matrix(1 0 0 1 251.2994 436.9194)">Introduction</text>
	<text transform="matrix(1 0 0 1 270.4251 575.4819)">Gallery</text>
	<text transform="matrix(1 0 0 1 30.5735 513.7202)">Application form</text>
	<text transform="matrix(1 0 0 1 254.7472 513.7202)">Organizers</text>
	<text transform="matrix(1 0 0 1 58.0049 583.0014)">Rundown</text>
	<path id="arrow" d="M430.2,389.9l11.7-16.4l-11.7-16.4h9.5l11.3,16.4l-11.3,16.4H430.2z"/>
</g>
<g id="subtext"><text transform="matrix(1 0 0 1 252.1409 386.6596)">Offline events</text><text transform="matrix(1 0 0 1 50.7187 455.9409)">online events</text><text transform="matrix(1 0 0 1 241.2271 455.9409)">property / events</text><text transform="matrix(1 0 0 1 241.2271 594.5044)">property / events</text></g>
<g id="category"><text transform="matrix(1 0 0 1 -6.671143e-02 654.56)">Application method</text><text transform="matrix(1 0 0 1 -6.671143e-02 65.0913)">Typical Event Types</text><text transform="matrix(1 0 0 1 -6.671143e-02 257.6338)">Content</text></g><image xlink:href="02Img.webp" x="0" y="0" height="1318" width="744" transform="matrix(0.6017 0 0 0.6017 490.1581 0)"/></svg>
